<svg width="608" height="343" viewBox="0 0 608 343" fill="none" xmlns="http://www.w3.org/2000/svg">
  <defs>
    <mask id="rounded-mask">
      <rect width="608" height="343" rx="20" ry="20" fill="white"/>
    </mask>
  </defs>
  <rect width="608" height="343" fill="#9D7EDE" mask="url(#rounded-mask)"/>
  <g opacity="0.71" mask="url(#rounded-mask)">
    <path opacity="0.71" d="M552.43 146.682V122.736H510.445V97H456.469V162.243H443.929V177.507H434.114V214.018H422.662V163.736H394.309V149.073H378.224V172.566L363.232 180.796V228.082H327.788V124.234H289.62V143.685H259.631L251.452 148.175V158.949H213.833L206.743 162.838V199.354H190.929V143.09H161.489V152.967H114.87V176.758L106.415 181.397V204.767H92.3616V147.092L73.2801 142.9V127.338H22.0234V193.182H17.4365V333.53H58.6265H92.3616H187.836V333.366L567.971 333.12V155.209L552.43 146.682Z" fill="#8660D6"/>
  </g>
  <path d="M539.111 164.071L531.384 172.567V198.611H523.144V127.273H486.315V293.444L475.243 281.269V185.589H393.345V209.93H350.082V286.363V320.016H312.073V220.622H301.077V181.957H278.538V245.999H268.097V258.088L254.905 235.127H231.817V152.347H187.292L183.444 156.575V181.957V210.351H170.801V134.825H132.874V147.514L125.45 155.672V284.368H116.933V181.049H111.982V171.079H68.2827L60.8636 179.237V190.715H17.4365V337.235H154.86V336.933H294.479V337.235H350.082H430.256H572.076V164.071H539.111Z" fill="#6F45CE" mask="url(#rounded-mask)"/>
  <path d="M571.859 174.726V277.973H558.534V236.88L539.658 220.872V158.718H515.784L501.9 146.942H484.137V209.569H441.387V280.677H430.279V181.319L399.192 194.972V254.304H390.864V162.956H380.316V136.111H369.767V129.99H365.323V135.172H339.228V155.891H314.8L308.695 162.956V247.711H287.874V230.523L274.826 219.461V178.964H229.301V212.396H212.641V240.651L192.656 259.486H179.886V170.016L144.35 149.297V232.175H136.023V175.198H93.827V194.972H74.3966V289.62H66.0693V248.655H37.7524V235.941L32.755 229.82H0V342.352H526.974H558.534H571.859H608V174.726H571.859Z" fill="#432483" mask="url(#rounded-mask)"/>
</svg>
