<svg width="300" height="225" viewBox="0 0 400 300" xmlns="http://www.w3.org/2000/svg">
  <!-- Background -->
  <defs>
    <linearGradient id="bg-gradient" x1="0" y1="0" x2="1" y2="1">
      <stop offset="0%" stop-color="#4299e1" />
      <stop offset="100%" stop-color="#9f7aea" />
    </linearGradient>
  </defs>
  <rect width="100%" height="100%" fill="url(#bg-gradient)" rx="20" />
  
  <!-- Buildings -->
  <rect x="50" y="100" width="100" height="150" fill="#2b6cb0" rx="10" />
  <rect x="250" y="50" width="100" height="200" fill="#6b46c1" rx="10" />
  
  <!-- Windows -->
  <rect x="70" y="120" width="20" height="20" fill="#fff" />
  <rect x="110" y="120" width="20" height="20" fill="#fff" />
  <rect x="70" y="160" width="20" height="20" fill="#fff" />
  <rect x="110" y="160" width="20" height="20" fill="#fff" />
  <rect x="70" y="200" width="20" height="20" fill="#fff" />
  <rect x="110" y="200" width="20" height="20" fill="#fff" />
  
  <rect x="270" y="70" width="20" height="20" fill="#fff" />
  <rect x="310" y="70" width="20" height="20" fill="#fff" />
  <rect x="270" y="110" width="20" height="20" fill="#fff" />
  <rect x="310" y="110" width="20" height="20" fill="#fff" />
  <rect x="270" y="150" width="20" height="20" fill="#fff" />
  <rect x="310" y="150" width="20" height="20" fill="#fff" />
  <rect x="270" y="190" width="20" height="20" fill="#fff" />
  <rect x="310" y="190" width="20" height="20" fill="#fff" />
  
  <!-- Arrows -->
  <path d="M150 175 L200 125 L250 175" stroke="#2c5282" stroke-width="5" fill="none" marker-end="url(#arrowhead)" />
  <path d="M250 125 L200 175 L150 125" stroke="#553c9a" stroke-width="5" fill="none" marker-end="url(#arrowhead)" />
  
  <!-- Additional Details -->
  <circle cx="200" cy="150" r="10" fill="#fff" />
  <circle cx="200" cy="150" r="5" fill="#2c5282" />
  <line x1="200" y1="140" x2="200" y2="160" stroke="#2c5282" stroke-width="2" />
  <line x1="190" y1="150" x2="210" y2="150" stroke="#2c5282" stroke-width="2" />
</svg>